<svg id="el39hr0cqIH1" xmlns="http://www.w3.org/2000/svg" xmlns:xlink="http://www.w3.org/1999/xlink" viewBox="0 0 640 480" shape-rendering="geometricPrecision" text-rendering="geometricPrecision"><polygon points="0,-64 50.037215,-39.903347 62.395386,14.24134 27.768559,57.662008 -27.768559,57.662008 -62.395386,14.24134 -50.037215,-39.903347 0,-64" transform="matrix(.642457 0 0 0.642457 30.410367 25.88337)" fill="#ff7d00" stroke-width="0"/><polygon points="0,-64 50.037215,-39.903347 62.395386,14.24134 27.768559,57.662008 -27.768559,57.662008 -62.395386,14.24134 -50.037215,-39.903347 0,-64" transform="matrix(.642457 0 0 0.642457 30.410367 94.997841)" fill="#f00" stroke-width="0"/><polygon points="0,-64 50.037215,-39.903347 62.395386,14.24134 27.768559,57.662008 -27.768559,57.662008 -62.395386,14.24134 -50.037215,-39.903347 0,-64" transform="matrix(.642457 0 0 0.642457 30.410367 166.876891)" fill="#fc0" stroke-width="0"/><polygon points="0,-64 50.037215,-39.903347 62.395386,14.24134 27.768559,57.662008 -27.768559,57.662008 -62.395386,14.24134 -50.037215,-39.903347 0,-64" transform="matrix(.642457 0 0 0.642457 30.410367 234.609085)" fill="#00ff2c" stroke-width="0"/></svg>